<svg xmlns="http://www.w3.org/2000/svg" width="430" height="430" style="width:100%;height:100%;transform:translate3d(0,0,0);content-visibility:visible" viewBox="0 0 430 430"><defs><clipPath id="e"><path d="M0 0h430v430H0z"/></clipPath><clipPath id="k"><path d="M0 0h430v430H0z"/></clipPath><clipPath id="i"><path d="M0 0h430v430H0z"/></clipPath><clipPath id="h"><path d="M0 0h430v430H0z"/></clipPath><clipPath id="f"><path d="M0 0h430v430H0z"/></clipPath><filter id="a" width="100%" height="100%" x="0%" y="0%" filterUnits="objectBoundingBox"><feComponentTransfer in="SourceGraphic"><feFuncA tableValues="1.0 0.0" type="table"/></feComponentTransfer></filter><filter id="c" width="100%" height="100%" x="0%" y="0%" filterUnits="objectBoundingBox"><feComponentTransfer in="SourceGraphic"><feFuncA tableValues="1.0 0.0" type="table"/></feComponentTransfer></filter><path id="b" fill="red" d="M34.663-13.18C29.536-25.199 17.614-33.625 3.722-33.625c-12.984 0-24.241 7.364-29.844 18.139A10.43 10.43 0 0 0-29.354-16c-5.779 0-10.463 4.685-10.463 10.464 0 .774.09 1.526.249 2.252-6.227 3.278-10.479-31.648-10.479-49.441 0-25.567 8.767-46.293 19.581-46.293h56.271c13.388 0 24.242 25.659 24.242 57.311 0 24.258-6.379 32.065-15.384 28.527z" style="display:block" transform="matrix(3.5 0 0 3.5 215.876 207.563)"/><path id="d" style="display:none"/><mask id="j" mask-type="alpha"><g filter="url(#a)"><path fill="#fff" d="M0 0h430v430H0z" opacity="0"/><use xmlns:ns1="http://www.w3.org/1999/xlink" ns1:href="#b"/></g></mask><mask id="g" mask-type="alpha"><g filter="url(#c)"><path fill="#fff" d="M0 0h430v430H0z" opacity="0"/><use xmlns:ns2="http://www.w3.org/1999/xlink" ns2:href="#d"/></g></mask></defs><g clip-path="url(#e)"><g clip-path="url(#f)" style="display:none"><g mask="url(#g)" style="display:none"><path fill="none" class="secondary"/></g><path fill="none" class="primary" style="display:none"/><path fill="none" class="primary" style="display:none"/><path fill="none" class="secondary" style="display:none"/></g><g fill="none" clip-path="url(#h)" style="display:none"><path class="primary" style="display:none"/><path class="primary" style="display:none"/><g style="display:none"><path class="secondary"/><path class="secondary"/></g><path class="secondary" style="display:none"/></g><g clip-path="url(#i)" style="display:block"><path fill="none" class="secondary" style="display:none"/><g mask="url(#j)" style="display:block"><path fill="none" stroke="#08A88A" stroke-linecap="round" stroke-linejoin="round" stroke-width="12.25" d="M227.25 341.438v-133m-48.563 46 49-49 48.125 49" class="secondary"/></g><path fill="none" stroke="#121331" stroke-linecap="round" stroke-linejoin="round" stroke-width="3.5" d="M11.259 33.625h14.546c13.388 0 24.242-10.853 24.242-24.241 0-10.261-6.379-19.026-15.384-22.564 0 0 0 0 0 0-5.127-12.019-17.049-20.445-30.941-20.445-12.984 0-24.241 7.364-29.844 18.139A10.43 10.43 0 0 0-29.354-16c-5.779 0-10.463 4.685-10.463 10.464 0 .774.09 1.526.249 2.252-6.227 3.278-10.479 9.802-10.479 17.328 0 10.814 8.767 19.581 19.581 19.581h25.32" class="primary" style="display:block" transform="matrix(3.5 0 0 3.5 215.876 207.563)"/><path fill="none" stroke="#121331" stroke-linecap="round" stroke-linejoin="round" stroke-width="3.5" d="M-19.496-9.07c-1.457-4.037-5.312-6.93-9.851-6.93m63.933 2.588A33.513 33.513 0 0 1 37.367 0s.011 3.551-1.221 7.909" class="primary" style="display:block" transform="matrix(3.5 0 0 3.5 216.75 208)"/></g><g fill="none" clip-path="url(#k)" style="display:none"><path class="primary" style="display:none"/><path class="primary" style="display:none"/><path class="primary" style="display:none"/><path class="primary" style="display:none"/><path class="primary" style="display:none"/><path class="primary" style="display:none"/><path class="secondary" style="display:none"/><g style="display:none"><path class="secondary"/><path class="secondary"/></g></g></g></svg>